# xmcd
#
# Track frame offsets: 
#        150
#        21424
#        44042
#        65350
#        81879
#        96975
#        121230
#        142746
#        159324
#        178258
#        194152
#        210888
#
# Disc length: 2943 seconds
#
# Revision: 2
# Processed by: cddbd v1.5.2PL0 Copyright (c) Steve Scherf et al.
# Submitted via: ExactAudioCopy v0.95b4
#
DISCID=a80b7d0c
DTITLE=Various Artist - Body and Soul ( Sweet Embrace )
DYEAR=2002
DGENRE=R&B
TTITLE0=Melba Moore -  Falling
TTITLE1=Teddy Pendergrass - Love T.K.O.
TTITLE2=Freddie Jackson - You Are My Lady
TTITLE3=Taveres -  She's Gone
TTITLE4=The Delfonics -  La-La Means I Love You
TTITLE5=Natalie Cole - Our Love 
TTITLE6=Patti LaBelle -  If Only You Knew
TTITLE7=Al Green - Let's Stay Together
TTITLE8=Larry Graham -  One In A Million
TTITLE9=Peabo Bryson and Roberta Flack - Tonght, I Celebrate My Love
TTITLE10=A Taste Of Honey -  Sukiyake
TTITLE11=Lou Rawls -  Love Is A Hurtin' Thing
EXTD=
EXTT0=
EXTT1=
EXTT2=
EXTT3=
EXTT4=
EXTT5=
EXTT6=
EXTT7=
EXTT8=
EXTT9=
EXTT10=
EXTT11=
PLAYORDER=
